<mxfile host="app.diagrams.net" agent="Mozilla/5.0 (Windows NT 10.0; Win64; x64) AppleWebKit/537.36 (KHTML, like Gecko) Chrome/134.0.0.0 Safari/537.36" version="26.0.14">
  <diagram name="第 1 页" id="oAWupdcLgCYbKFIpt6_K">
    <mxGraphModel dx="2901" dy="1132" grid="1" gridSize="10" guides="1" tooltips="1" connect="1" arrows="1" fold="1" page="1" pageScale="1" pageWidth="827" pageHeight="1169" math="0" shadow="0">
      <root>
        <mxCell id="0" />
        <mxCell id="1" parent="0" />
        <mxCell id="dHVRXrRRXELRKoDURco5-29" value="" style="group;align=center;verticalAlign=top;" vertex="1" connectable="0" parent="1">
          <mxGeometry x="470" y="11" width="357" height="509" as="geometry" />
        </mxCell>
        <mxCell id="dHVRXrRRXELRKoDURco5-28" value="" style="group;align=center;verticalAlign=top;" vertex="1" connectable="0" parent="dHVRXrRRXELRKoDURco5-29">
          <mxGeometry x="-260" y="50" width="301" height="101" as="geometry" />
        </mxCell>
        <mxCell id="dHVRXrRRXELRKoDURco5-1" value="工单执行与反馈" style="whiteSpace=wrap;strokeWidth=2;align=left;verticalAlign=top;" vertex="1" parent="dHVRXrRRXELRKoDURco5-28">
          <mxGeometry width="301" height="101" as="geometry" />
        </mxCell>
        <mxCell id="dHVRXrRRXELRKoDURco5-16" value="工单执行" style="whiteSpace=wrap;strokeWidth=2;" vertex="1" parent="dHVRXrRRXELRKoDURco5-28">
          <mxGeometry x="92.5" y="21" width="116" height="51" as="geometry" />
        </mxCell>
        <mxCell id="dHVRXrRRXELRKoDURco5-2" value="工单筛选与流转" style="whiteSpace=wrap;strokeWidth=2;align=left;verticalAlign=top;" vertex="1" parent="dHVRXrRRXELRKoDURco5-29">
          <mxGeometry x="100" y="180" width="242" height="349" as="geometry" />
        </mxCell>
        <mxCell id="dHVRXrRRXELRKoDURco5-39" style="edgeStyle=orthogonalEdgeStyle;rounded=0;orthogonalLoop=1;jettySize=auto;html=1;exitX=0.5;exitY=0;exitDx=0;exitDy=0;entryX=1;entryY=0.5;entryDx=0;entryDy=0;" edge="1" parent="dHVRXrRRXELRKoDURco5-29" source="dHVRXrRRXELRKoDURco5-15" target="dHVRXrRRXELRKoDURco5-16">
          <mxGeometry relative="1" as="geometry" />
        </mxCell>
        <mxCell id="dHVRXrRRXELRKoDURco5-40" value="执行处理流程" style="edgeLabel;html=1;align=center;verticalAlign=middle;resizable=0;points=[];" vertex="1" connectable="0" parent="dHVRXrRRXELRKoDURco5-39">
          <mxGeometry x="-0.3453" y="1" relative="1" as="geometry">
            <mxPoint as="offset" />
          </mxGeometry>
        </mxCell>
        <mxCell id="dHVRXrRRXELRKoDURco5-15" value="对应业务部门" style="whiteSpace=wrap;strokeWidth=2;" vertex="1" parent="dHVRXrRRXELRKoDURco5-29">
          <mxGeometry x="149" y="240" width="144" height="51" as="geometry" />
        </mxCell>
        <mxCell id="dHVRXrRRXELRKoDURco5-13" value="工单管理系统" style="whiteSpace=wrap;strokeWidth=2;" vertex="1" parent="dHVRXrRRXELRKoDURco5-29">
          <mxGeometry x="149" y="425.8888888888889" width="144" height="51" as="geometry" />
        </mxCell>
        <mxCell id="dHVRXrRRXELRKoDURco5-24" value="业务人员快速筛选" style="curved=1;startArrow=none;endArrow=block;exitX=0.5;exitY=0;rounded=0;exitDx=0;exitDy=0;" edge="1" parent="dHVRXrRRXELRKoDURco5-29" source="dHVRXrRRXELRKoDURco5-13" target="dHVRXrRRXELRKoDURco5-14">
          <mxGeometry relative="1" as="geometry">
            <Array as="points" />
          </mxGeometry>
        </mxCell>
        <mxCell id="dHVRXrRRXELRKoDURco5-14" value="业务人员操作平台" style="whiteSpace=wrap;strokeWidth=2;" vertex="1" parent="dHVRXrRRXELRKoDURco5-29">
          <mxGeometry x="135" y="337" width="172" height="51" as="geometry" />
        </mxCell>
        <mxCell id="dHVRXrRRXELRKoDURco5-25" value="确认处理&amp;流转" style="curved=1;startArrow=none;endArrow=block;exitX=0.5;exitY=0;entryX=0.5;entryY=1;rounded=0;exitDx=0;exitDy=0;entryDx=0;entryDy=0;" edge="1" parent="dHVRXrRRXELRKoDURco5-29" source="dHVRXrRRXELRKoDURco5-14" target="dHVRXrRRXELRKoDURco5-15">
          <mxGeometry relative="1" as="geometry">
            <Array as="points" />
          </mxGeometry>
        </mxCell>
        <mxCell id="dHVRXrRRXELRKoDURco5-30" value="" style="group;verticalAlign=top;align=left;" vertex="1" connectable="0" parent="1">
          <mxGeometry x="240" y="300" width="214" height="220" as="geometry" />
        </mxCell>
        <mxCell id="dHVRXrRRXELRKoDURco5-3" value="业务知识库与推荐" style="whiteSpace=wrap;strokeWidth=2;align=left;verticalAlign=top;" vertex="1" parent="dHVRXrRRXELRKoDURco5-30">
          <mxGeometry width="214" height="220" as="geometry" />
        </mxCell>
        <mxCell id="dHVRXrRRXELRKoDURco5-12" value="流程推荐模块" style="whiteSpace=wrap;strokeWidth=2;" vertex="1" parent="dHVRXrRRXELRKoDURco5-30">
          <mxGeometry x="35" y="39.11111111111111" width="144" height="49.86666666666667" as="geometry" />
        </mxCell>
        <mxCell id="dHVRXrRRXELRKoDURco5-11" value="业务知识库" style="whiteSpace=wrap;strokeWidth=2;" vertex="1" parent="dHVRXrRRXELRKoDURco5-30">
          <mxGeometry x="42" y="136.8888888888889" width="130" height="49.86666666666667" as="geometry" />
        </mxCell>
        <mxCell id="dHVRXrRRXELRKoDURco5-22" value="推荐处理方案" style="curved=1;startArrow=none;endArrow=block;rounded=0;" edge="1" parent="dHVRXrRRXELRKoDURco5-30">
          <mxGeometry relative="1" as="geometry">
            <Array as="points" />
            <mxPoint x="107" y="140" as="sourcePoint" />
            <mxPoint x="107" y="88" as="targetPoint" />
          </mxGeometry>
        </mxCell>
        <mxCell id="dHVRXrRRXELRKoDURco5-31" value="" style="group;align=center;verticalAlign=top;" vertex="1" connectable="0" parent="1">
          <mxGeometry x="-250" y="300" width="350" height="225" as="geometry" />
        </mxCell>
        <mxCell id="dHVRXrRRXELRKoDURco5-4" value="智能代理系统" style="whiteSpace=wrap;strokeWidth=2;verticalAlign=top;align=left;" vertex="1" parent="dHVRXrRRXELRKoDURco5-31">
          <mxGeometry width="350" height="225" as="geometry" />
        </mxCell>
        <mxCell id="dHVRXrRRXELRKoDURco5-8" value="智能代理系统" style="whiteSpace=wrap;strokeWidth=2;" vertex="1" parent="dHVRXrRRXELRKoDURco5-31">
          <mxGeometry x="113.23529411764706" y="25" width="123.52941176470588" height="51" as="geometry" />
        </mxCell>
        <mxCell id="dHVRXrRRXELRKoDURco5-9" value="工单解析模块" style="whiteSpace=wrap;strokeWidth=2;" vertex="1" parent="dHVRXrRRXELRKoDURco5-31">
          <mxGeometry x="30.024509803921568" y="136.8888888888889" width="123.52941176470588" height="51" as="geometry" />
        </mxCell>
        <mxCell id="dHVRXrRRXELRKoDURco5-10" value="业务匹配模块" style="whiteSpace=wrap;strokeWidth=2;" vertex="1" parent="dHVRXrRRXELRKoDURco5-31">
          <mxGeometry x="196.44607843137254" y="136.8888888888889" width="123.52941176470588" height="51" as="geometry" />
        </mxCell>
        <mxCell id="dHVRXrRRXELRKoDURco5-19" value="解析关键信息" style="curved=1;startArrow=none;endArrow=block;exitX=0.22;exitY=1;entryX=0.5;entryY=0;rounded=0;" edge="1" parent="dHVRXrRRXELRKoDURco5-31" source="dHVRXrRRXELRKoDURco5-8" target="dHVRXrRRXELRKoDURco5-9">
          <mxGeometry relative="1" as="geometry">
            <Array as="points">
              <mxPoint x="91.7892156862745" y="113" />
            </Array>
          </mxGeometry>
        </mxCell>
        <mxCell id="dHVRXrRRXELRKoDURco5-20" value="生成业务标签" style="curved=1;startArrow=none;endArrow=block;exitX=0.78;exitY=1;entryX=0.5;entryY=0;rounded=0;" edge="1" parent="dHVRXrRRXELRKoDURco5-31" source="dHVRXrRRXELRKoDURco5-8" target="dHVRXrRRXELRKoDURco5-10">
          <mxGeometry relative="1" as="geometry">
            <Array as="points">
              <mxPoint x="258.21078431372547" y="113" />
            </Array>
          </mxGeometry>
        </mxCell>
        <mxCell id="dHVRXrRRXELRKoDURco5-32" value="" style="group;align=left;" vertex="1" connectable="0" parent="1">
          <mxGeometry x="-250" y="20" width="350" height="225" as="geometry" />
        </mxCell>
        <mxCell id="dHVRXrRRXELRKoDURco5-5" value="工单管理系统" style="whiteSpace=wrap;strokeWidth=2;align=left;verticalAlign=top;" vertex="1" parent="dHVRXrRRXELRKoDURco5-32">
          <mxGeometry width="350" height="225" as="geometry" />
        </mxCell>
        <mxCell id="dHVRXrRRXELRKoDURco5-6" value="工单管理系统" style="whiteSpace=wrap;strokeWidth=2;" vertex="1" parent="dHVRXrRRXELRKoDURco5-32">
          <mxGeometry x="103" y="60" width="144" height="51" as="geometry" />
        </mxCell>
        <mxCell id="dHVRXrRRXELRKoDURco5-7" value="RPA 机器人" style="whiteSpace=wrap;strokeWidth=2;" vertex="1" parent="dHVRXrRRXELRKoDURco5-32">
          <mxGeometry x="111" y="160" width="128" height="51" as="geometry" />
        </mxCell>
        <mxCell id="dHVRXrRRXELRKoDURco5-17" value="批量导出工单" style="curved=1;startArrow=none;endArrow=block;exitX=0.5;exitY=1;entryX=0.5;entryY=0;rounded=0;exitDx=0;exitDy=0;" edge="1" parent="dHVRXrRRXELRKoDURco5-32" source="dHVRXrRRXELRKoDURco5-6" target="dHVRXrRRXELRKoDURco5-7">
          <mxGeometry relative="1" as="geometry">
            <Array as="points" />
          </mxGeometry>
        </mxCell>
        <mxCell id="dHVRXrRRXELRKoDURco5-18" value="数据清洗&amp;预处理" style="curved=1;startArrow=none;endArrow=block;exitX=0.5;exitY=1;entryX=0.5;entryY=0;rounded=0;" edge="1" parent="1" source="dHVRXrRRXELRKoDURco5-7" target="dHVRXrRRXELRKoDURco5-8">
          <mxGeometry relative="1" as="geometry">
            <Array as="points" />
          </mxGeometry>
        </mxCell>
        <mxCell id="dHVRXrRRXELRKoDURco5-21" value="匹配业务类型&amp;推荐流程" style="curved=1;startArrow=none;endArrow=block;exitX=1;exitY=0.5;rounded=0;exitDx=0;exitDy=0;" edge="1" parent="1" source="dHVRXrRRXELRKoDURco5-10" target="dHVRXrRRXELRKoDURco5-11">
          <mxGeometry relative="1" as="geometry">
            <Array as="points" />
          </mxGeometry>
        </mxCell>
        <mxCell id="dHVRXrRRXELRKoDURco5-35" style="edgeStyle=orthogonalEdgeStyle;rounded=0;orthogonalLoop=1;jettySize=auto;html=1;exitX=1;exitY=0.5;exitDx=0;exitDy=0;entryX=0;entryY=0.5;entryDx=0;entryDy=0;" edge="1" parent="1" source="dHVRXrRRXELRKoDURco5-12" target="dHVRXrRRXELRKoDURco5-13">
          <mxGeometry relative="1" as="geometry" />
        </mxCell>
        <mxCell id="dHVRXrRRXELRKoDURco5-36" value="提供筛选条件" style="edgeLabel;html=1;align=center;verticalAlign=middle;resizable=0;points=[];" vertex="1" connectable="0" parent="dHVRXrRRXELRKoDURco5-35">
          <mxGeometry x="0.0212" relative="1" as="geometry">
            <mxPoint as="offset" />
          </mxGeometry>
        </mxCell>
        <mxCell id="dHVRXrRRXELRKoDURco5-42" style="edgeStyle=orthogonalEdgeStyle;rounded=0;orthogonalLoop=1;jettySize=auto;html=1;exitX=0;exitY=0.5;exitDx=0;exitDy=0;" edge="1" parent="1" source="dHVRXrRRXELRKoDURco5-16" target="dHVRXrRRXELRKoDURco5-6">
          <mxGeometry relative="1" as="geometry" />
        </mxCell>
        <mxCell id="dHVRXrRRXELRKoDURco5-43" value="更新处理状态" style="edgeLabel;html=1;align=center;verticalAlign=middle;resizable=0;points=[];" vertex="1" connectable="0" parent="dHVRXrRRXELRKoDURco5-42">
          <mxGeometry x="0.0045" y="3" relative="1" as="geometry">
            <mxPoint x="1" as="offset" />
          </mxGeometry>
        </mxCell>
      </root>
    </mxGraphModel>
  </diagram>
</mxfile>
